<?xml version="1.0" encoding="utf-8"?>
<!-- Generator: Adobe Illustrator 25.4.1, SVG Export Plug-In . SVG Version: 6.00 Build 0)  -->
<svg version="1.1" xmlns="http://www.w3.org/2000/svg" xmlns:xlink="http://www.w3.org/1999/xlink" x="0px" y="0px"
	 viewBox="0 0 50 50" style="enable-background:new 0 0 50 50;" xml:space="preserve">
<style type="text/css">
	.st0{display:none;}
	.st1{display:inline;}
	.st2{fill:#1AB2E8;}
	.st3{fill:#FFFFFF;}
	
		.st4{clip-path:url(#SVGID_00000106135109397762630060000017510542143715810229_);fill:url(#SVGID_00000096033310644824730130000014753333705532943294_);}
	.st5{clip-path:url(#SVGID_00000132799817111300852980000002740044464493878936_);fill:#0A50B2;}
	.st6{fill:#0A50B2;}
	.st7{display:inline;fill:#FFFFFF;}
	.st8{fill-rule:evenodd;clip-rule:evenodd;fill:#010101;}
	.st9{fill-rule:evenodd;clip-rule:evenodd;fill:#EE1D51;}
	.st10{fill-rule:evenodd;clip-rule:evenodd;fill:#66C8CF;}
	.st11{fill-rule:evenodd;clip-rule:evenodd;fill:#FFFFFF;}
	.st12{fill-rule:evenodd;clip-rule:evenodd;fill:#EE1D52;}
	.st13{fill-rule:evenodd;clip-rule:evenodd;fill:#69C9D0;}
</style>
<g id="Layer_1" class="st0">
	<g class="st1">
		<g>
			<g>
				<g>
					<circle class="st2" cx="25" cy="25" r="25"/>
				</g>
			</g>
		</g>
		<path class="st3" d="M39.5,15.7c-1.1,0.5-2.2,0.8-3.4,1c1.2-0.7,2.2-1.9,2.6-3.2c-1.1,0.6-2.4,1.1-3.7,1.5
			c-1.1-1.1-2.6-1.9-4.3-1.9c-3.2,0-5.9,2.7-5.9,5.9c0,0.5,0.1,0.9,0.2,1.4c-4.9-0.2-9.3-2.6-12.2-6.1c-0.5,0.9-0.8,1.9-0.8,3
			c0,2,1.1,3.9,2.7,4.9c-1,0-1.9-0.3-2.7-0.7v0.1c0,2.8,2,5.3,4.8,5.8c-0.5,0.2-1.1,0.2-1.5,0.2s-0.7,0-1.1-0.1
			c0.7,2.3,2.9,4,5.5,4.1c-2,1.6-4.6,2.5-7.4,2.5c-0.5,0-1,0-1.4-0.1c2.6,1.7,5.7,2.7,9.1,2.7c10.9,0,16.8-9,16.8-16.8
			c0-0.2,0-0.5,0-0.7C37.6,18,38.7,16.9,39.5,15.7z"/>
	</g>
</g>
<g id="Capa_2">
	<g>
		<defs>
			<circle id="SVGID_1_" cx="25" cy="25" r="25"/>
		</defs>
		<clipPath id="SVGID_00000023250298452495120290000010375378272508469942_">
			<use xlink:href="#SVGID_1_"  style="overflow:visible;"/>
		</clipPath>
		
			<radialGradient id="SVGID_00000026136272812915376420000004626406295190787217_" cx="8.545" cy="39.1619" r="101.6486" fx="-22.8089" fy="34.6074" gradientTransform="matrix(0.6534 -0.757 0.6147 0.5306 -21.1105 24.852)" gradientUnits="userSpaceOnUse">
			<stop  offset="0" style="stop-color:#F9ED32"/>
			<stop  offset="6.147725e-02" style="stop-color:#F8D939"/>
			<stop  offset="0.1874" style="stop-color:#F5A54D"/>
			<stop  offset="0.365" style="stop-color:#F0536C"/>
			<stop  offset="0.4486" style="stop-color:#EE2A7B"/>
			<stop  offset="0.5994" style="stop-color:#9E2AA7"/>
			<stop  offset="0.7418" style="stop-color:#5B2ACD"/>
			<stop  offset="0.86" style="stop-color:#2A2AE8"/>
			<stop  offset="0.9496" style="stop-color:#0B2AF9"/>
			<stop  offset="1" style="stop-color:#002AFF"/>
		</radialGradient>
		
			<path style="clip-path:url(#SVGID_00000023250298452495120290000010375378272508469942_);fill:url(#SVGID_00000026136272812915376420000004626406295190787217_);" d="
			M50,41.5c0,4.7-3.8,8.5-8.5,8.5H8.5C3.8,50,0,46.2,0,41.5V8.5C0,3.8,3.8,0,8.5,0h32.9C46.2,0,50,3.8,50,8.5V41.5z"/>
	</g>
	<g>
		<g>
			<path class="st3" d="M31.4,40.1H19.3c-5.4,0-9.7-4.4-9.7-9.7V19.7c0-5.4,4.4-9.7,9.7-9.7h12.1c5.4,0,9.7,4.4,9.7,9.7v10.6
				C41.1,35.8,36.7,40.1,31.4,40.1z M19.3,12.2c-4.2,0-7.6,3.4-7.6,7.6v10.6c0,4.2,3.4,7.6,7.6,7.6h12.1c4.2,0,7.6-3.4,7.6-7.6V19.7
				c0-4.2-3.4-7.6-7.6-7.6H19.3z"/>
		</g>
		<g>
			<path class="st3" d="M25.3,33.7c-4.8,0-8.7-3.9-8.7-8.7c0-4.8,3.9-8.7,8.7-8.7c4.8,0,8.7,3.9,8.7,8.7
				C34,29.8,30.1,33.7,25.3,33.7z M25.3,18.6c-3.6,0-6.5,2.9-6.5,6.5c0,3.6,2.9,6.5,6.5,6.5c3.6,0,6.5-2.9,6.5-6.5
				C31.8,21.5,28.9,18.6,25.3,18.6z"/>
		</g>
		<g>
			<path class="st3" d="M35.6,16.7c0,1-0.8,1.8-1.8,1.8c-1,0-1.8-0.8-1.8-1.8c0-1,0.8-1.8,1.8-1.8C34.8,14.9,35.6,15.7,35.6,16.7z"
				/>
		</g>
	</g>
</g>
<g id="Capa_3" class="st0">
	<g class="st1">
		<defs>
			<circle id="SVGID_00000157990805722060060560000017706864320163325333_" cx="25" cy="25" r="25"/>
		</defs>
		<clipPath id="SVGID_00000044148244866468635560000008296202573091596713_">
			<use xlink:href="#SVGID_00000157990805722060060560000017706864320163325333_"  style="overflow:visible;"/>
		</clipPath>
		<path style="clip-path:url(#SVGID_00000044148244866468635560000008296202573091596713_);fill:#0A50B2;" d="M25.3-0.2
			c7.2,0,14.3,0,21.5,0c1.9,0,3.5,1.4,3.7,3c0,0.2,0,0.4,0,0.6c0,14.4,0,28.8,0,43.2c0,1.9-1.5,3.5-3.4,3.6c-0.1,0-0.3,0-0.4,0
			c-14.3,0-28.6,0-42.9,0c-1.8,0-3.2-1-3.6-2.6c-0.1-0.3-0.2-0.7-0.2-1.1c0-14.3,0-28.7,0-43c0-2,1.5-3.6,3.6-3.6c1.7,0,3.5,0,5.2,0
			C14.3-0.2,19.8-0.2,25.3-0.2z"/>
	</g>
	<g class="st1">
		<path class="st6" d="M45.9,41.6c1.9,0,3.4,1.5,3.4,3.3c0,1.9-1.5,3.4-3.4,3.4c-1.9,0-3.3-1.5-3.3-3.3
			C42.5,42.9,44.2,41.5,45.9,41.6z M42.9,44.9c0,1.7,1.4,3.1,3,3.1c1.7,0,3.1-1.4,3.1-3.1c0-1.7-1.4-3.1-3-3.1
			C44.3,41.8,42.9,43.2,42.9,44.9z"/>
		<path class="st3" d="M42.9,44.9c0-1.7,1.4-3.1,3.1-3.1c1.7,0,3,1.4,3,3.1c0,1.7-1.4,3.1-3.1,3.1C44.2,47.9,42.9,46.6,42.9,44.9z
			 M46.3,45.1c0.1-0.1,0.2-0.1,0.3-0.1c0.5-0.2,0.8-0.6,0.7-1c-0.1-0.5-0.4-0.8-1-0.8c-0.4,0-0.8,0-1.3,0c-0.1,0-0.3,0.2-0.3,0.3
			c0,1,0,2,0,3c0,0.1,0.1,0.2,0.2,0.2c0.1-0.1,0.2-0.2,0.2-0.2c0-0.3,0-0.6,0-0.8c0-0.2,0.1-0.4,0.2-0.5c0.2-0.1,0.5-0.1,0.7,0.2
			c0.2,0.4,0.4,0.7,0.7,1.1c0.1,0.1,0.3,0.2,0.5,0.3c0,0,0.1-0.1,0.1-0.1C47,46.1,46.7,45.6,46.3,45.1z"/>
		<path class="st6" d="M46.3,45.1c0.3,0.5,0.6,1,0.9,1.5c0,0-0.1,0.1-0.1,0.1c-0.2-0.1-0.3-0.2-0.5-0.3c-0.3-0.3-0.5-0.7-0.7-1.1
			c-0.2-0.3-0.4-0.3-0.7-0.2c-0.1,0-0.2,0.3-0.2,0.5c0,0.3,0,0.6,0,0.8c0,0.1-0.1,0.2-0.2,0.2c-0.1-0.1-0.2-0.2-0.2-0.2c0-1,0-2,0-3
			c0-0.1,0.2-0.3,0.3-0.3c0.4,0,0.8,0,1.3,0c0.6,0,0.9,0.3,1,0.8c0.1,0.5-0.2,0.8-0.7,1C46.5,45,46.5,45.1,46.3,45.1z M45.2,43.5
			c0,0.4,0,0.7,0,1.1c0,0.1,0.1,0.2,0.2,0.2c0.4,0,0.7,0,1.1-0.1c0.4-0.1,0.4-0.4,0.4-0.7c0-0.3-0.2-0.5-0.5-0.5
			C46,43.5,45.6,43.5,45.2,43.5z"/>
		<path class="st3" d="M45.2,43.5c0.4,0,0.8,0,1.1,0c0.3,0,0.5,0.2,0.5,0.5c0,0.3,0,0.6-0.4,0.7c-0.3,0.1-0.7,0.1-1.1,0.1
			c-0.1,0-0.2-0.1-0.2-0.2C45.2,44.2,45.2,43.9,45.2,43.5z"/>
	</g>
	<path class="st7" d="M27.1,21.2c0-0.7,0-1.4,0-2c0-0.3-0.1-0.5-0.4-0.5c-1.5,0-3,0-4.5,0c-0.4,0-0.4,0.1-0.4,0.5c0,5.7,0,11.3,0,17
		c0,0.3,0.1,0.5,0.4,0.5c1.6,0,3.2,0,4.7,0c0.3,0,0.5-0.1,0.5-0.5c0-2.8,0-5.7,0-8.5c0-0.6,0-1.2,0.1-1.8c0.2-1.2,0.8-2.2,2.1-2.5
		c0.4-0.1,0.8-0.1,1.2-0.1c1.3,0,2.1,0.6,2.4,1.9c0.2,0.7,0.2,1.5,0.2,2.2c0,2.9,0,5.9,0,8.8c0,0.3,0.1,0.5,0.4,0.5
		c1.6,0,3.2,0,4.7,0c0.3,0,0.4-0.1,0.4-0.4c0-3.2,0-6.3,0-9.5c0-1.3-0.1-2.6-0.4-3.8c-0.4-1.7-1.2-3.2-2.9-3.9
		c-1.7-0.8-3.5-0.9-5.2-0.4C29.1,19,28,19.9,27.1,21.2z"/>
	<path class="st7" d="M12.6,27.8c0,2.8,0,5.7,0,8.5c0,0.4,0.1,0.5,0.5,0.4c1.6,0,3.2,0,4.7,0c0.3,0,0.4-0.1,0.4-0.4
		c0-5.7,0-11.4,0-17c0-0.3-0.1-0.4-0.4-0.4c-1.6,0-3.2,0-4.7,0c-0.5,0-0.5,0-0.5,0.5C12.6,22.1,12.6,24.9,12.6,27.8z"/>
	<path class="st7" d="M15.4,16.4c1.8,0,3.3-1.4,3.3-3.2c0-1.8-1.4-3.3-3.2-3.3c-1.8,0-3.3,1.4-3.3,3.2C12.2,15,13.6,16.4,15.4,16.4z
		"/>
</g>
<g id="Capa_4" class="st0">
	<g class="st1">
		<path class="st8" d="M5,0h40c2.8,0,5,2.2,5,5v40c0,2.8-2.2,5-5,5H5c-2.8,0-5-2.2-5-5V5C0,2.2,2.2,0,5,0z"/>
		<path class="st9" d="M31.4,46c1.5,0,2.8-1.2,2.8-2.7c0-1.5-1.2-2.7-2.8-2.7H31c1.5,0,2.8,1.2,2.8,2.7c0,1.5-1.2,2.7-2.8,2.7H31.4z
			"/>
		<path class="st10" d="M30.9,40.5h-0.4c-1.5,0-2.8,1.2-2.8,2.7c0,1.5,1.2,2.7,2.8,2.7h0.4c-1.5,0-2.8-1.2-2.8-2.7
			C28.2,41.8,29.4,40.5,30.9,40.5z"/>
		<ellipse class="st8" cx="31" cy="43.3" rx="1.3" ry="1.3"/>
		<path class="st11" d="M10,39.3v1.4h1.6V46h1.6v-5.2h1.3l0.5-1.4H10z M23.3,39.3v1.4h1.6V46h1.6v-5.2h1.3l0.5-1.4H23.3z M15.3,40.1
			c0-0.4,0.4-0.8,0.8-0.8c0.4,0,0.8,0.4,0.8,0.8s-0.4,0.8-0.8,0.8C15.7,40.9,15.3,40.5,15.3,40.1z M15.3,41.4h1.6V46h-1.6V41.4z
			 M17.6,39.3V46h1.6v-1.7l0.5-0.4l1.5,2.2h1.7l-2.2-3.2l2-1.9h-1.9l-1.6,1.6v-3.1H17.6z M34.7,39.3V46h1.6v-1.7l0.5-0.4l1.5,2.2H40
			l-2.2-3.2l2-1.9h-1.9l-1.6,1.6v-3.1H34.7z"/>
		<path class="st12" d="M32.2,16.2c2.2,1.6,4.9,2.5,7.8,2.5v-5.6c-0.5,0-1.1-0.1-1.6-0.2v4.4c-2.9,0-5.6-0.9-7.8-2.5v11.4
			c0,5.7-4.6,10.3-10.3,10.3c-2.1,0-4.1-0.6-5.7-1.7c1.9,1.9,4.5,3.1,7.4,3.1c5.7,0,10.3-4.6,10.3-10.3L32.2,16.2L32.2,16.2z
			 M34.2,10.6c-1.1-1.2-1.9-2.8-2-4.5V5.4h-1.5C31.1,7.6,32.4,9.5,34.2,10.6L34.2,10.6z M18.2,30.4c-0.6-0.8-1-1.8-1-2.9
			c0-2.6,2.1-4.7,4.7-4.7c0.5,0,1,0.1,1.4,0.2v-5.7c-0.5-0.1-1.1-0.1-1.6-0.1v4.4c-0.5-0.1-0.9-0.2-1.4-0.2c-2.6,0-4.7,2.1-4.7,4.7
			C15.6,28.1,16.6,29.7,18.2,30.4z"/>
		<path class="st11" d="M30.6,14.9c2.2,1.6,4.9,2.5,7.8,2.5V13c-1.6-0.3-3-1.2-4.1-2.4c-1.8-1.1-3.2-3-3.6-5.3h-4.1v22.2
			c0,2.6-2.1,4.7-4.7,4.7c-1.5,0-2.9-0.7-3.8-1.9c-1.5-0.8-2.6-2.4-2.6-4.2c0-2.6,2.1-4.7,4.7-4.7c0.5,0,1,0.1,1.4,0.2v-4.4
			c-5.6,0.1-10.1,4.7-10.1,10.3c0,2.8,1.1,5.3,2.9,7.2c1.6,1.1,3.6,1.7,5.7,1.7c5.7,0,10.3-4.6,10.3-10.3L30.6,14.9z"/>
		<path class="st13" d="M38.4,13v-1.2c-1.5,0-2.9-0.4-4.1-1.2C35.3,11.8,36.8,12.6,38.4,13z M30.7,5.4c0-0.2-0.1-0.4-0.1-0.6V4H25
			v22.2c0,2.6-2.1,4.7-4.7,4.7c-0.8,0-1.5-0.2-2.1-0.5c0.9,1.1,2.2,1.9,3.8,1.9c2.6,0,4.7-2.1,4.7-4.7V5.4H30.7z M21.7,17.3V16
			C21.2,16,20.8,16,20.3,16C14.6,16,10,20.6,10,26.2c0,3.6,1.8,6.7,4.6,8.6c-1.8-1.9-2.9-4.4-2.9-7.2C11.6,22,16.1,17.4,21.7,17.3
			L21.7,17.3z"/>
		<path class="st11" d="M31,46c1.5,0,2.8-1.2,2.8-2.7c0-1.5-1.2-2.7-2.8-2.7h0c-1.5,0-2.8,1.2-2.8,2.7C28.2,44.8,29.4,46,31,46
			L31,46z M29.6,43.3c0-0.7,0.6-1.3,1.3-1.3c0.7,0,1.3,0.6,1.3,1.3c0,0.7-0.6,1.3-1.3,1.3C30.2,44.6,29.6,44,29.6,43.3z"/>
	</g>
</g>
</svg>
