<?xml version="1.0" encoding="utf-8"?>
<!-- Generator: Adobe Illustrator 21.1.0, SVG Export Plug-In . SVG Version: 6.00 Build 0)  -->
<svg version="1.1" id="Layer_1" xmlns="http://www.w3.org/2000/svg" xmlns:xlink="http://www.w3.org/1999/xlink" x="0px" y="0px"
	 width="50px" height="50px" viewBox="0 0 50 50" style="enable-background:new 0 0 50 50;" xml:space="preserve">
<style type="text/css">
	.st0{fill:#1AB2E8;}
	.st1{fill:#FFFFFF;}
</style>
<g>
	<g>
		<g>
			<g>
				<circle class="st0" cx="25" cy="25" r="25"/>
			</g>
		</g>
	</g>
	<path class="st1" d="M39.5,15.7c-1.1,0.5-2.2,0.8-3.4,1c1.2-0.7,2.2-1.9,2.6-3.2c-1.1,0.6-2.4,1.1-3.7,1.5
		c-1.1-1.1-2.6-1.9-4.3-1.9c-3.2,0-5.9,2.7-5.9,5.9c0,0.5,0.1,0.9,0.2,1.4c-4.9-0.2-9.3-2.6-12.2-6.1c-0.5,0.9-0.8,1.9-0.8,3
		c0,2,1.1,3.9,2.7,4.9c-1,0-1.9-0.3-2.7-0.7v0.1c0,2.8,2,5.3,4.8,5.8c-0.5,0.2-1.1,0.2-1.5,0.2c-0.4,0-0.7,0-1.1-0.1
		c0.7,2.3,2.9,4,5.5,4.1c-2,1.6-4.6,2.5-7.4,2.5c-0.5,0-1,0-1.4-0.1c2.6,1.7,5.7,2.7,9.1,2.7c10.9,0,16.8-9,16.8-16.8
		c0-0.2,0-0.5,0-0.7C37.6,18,38.7,16.9,39.5,15.7z"/>
</g>
</svg>
