<?xml version="1.0" encoding="utf-8"?>
<!-- Generator: Adobe Illustrator 21.1.0, SVG Export Plug-In . SVG Version: 6.00 Build 0)  -->
<svg version="1.1" id="Layer_1" xmlns="http://www.w3.org/2000/svg" xmlns:xlink="http://www.w3.org/1999/xlink" x="0px" y="0px"
	 width="50px" height="50px" viewBox="0 0 50 50" style="enable-background:new 0 0 50 50;" xml:space="preserve">
<style type="text/css">
	.st0{fill:#CC191E;}
	.st1{fill:#FFFFFF;}
</style>
<g>
	<g>
		<g>
			<circle class="st0" cx="25" cy="25" r="25"/>
		</g>
	</g>
</g>
<path class="st1" d="M40.7,18.6c0,0-0.3-2.2-1.3-3.2c-1.2-1.3-2.6-1.3-3.2-1.4C31.7,13.7,25,13.7,25,13.7h0c0,0-6.7,0-11.2,0.3
	c-0.6,0.1-2,0.1-3.2,1.4c-1,1-1.3,3.2-1.3,3.2S9,21.2,9,23.8v2.4c0,2.6,0.3,5.2,0.3,5.2s0.3,2.2,1.3,3.2c1.2,1.3,2.8,1.2,3.5,1.4
	c2.6,0.2,10.9,0.3,10.9,0.3s6.7,0,11.2-0.3c0.6-0.1,2-0.1,3.2-1.4c1-1,1.3-3.2,1.3-3.2s0.3-2.6,0.3-5.2v-2.4
	C41,21.2,40.7,18.6,40.7,18.6 M21.3,29.6l0-9.8l9.5,4.9L21.3,29.6z"/>
</svg>
